<svg xmlns="http://www.w3.org/2000/svg" xmlns:xlink="http://www.w3.org/1999/xlink" id="Layer_1" width="112.518" height="354.904" x="0" y="0" enable-background="new 0 0 112.518 354.904" version="1.1" viewBox="0 0 112.518 354.904" xml:space="preserve"><path fill="none" stroke="#000" d="M51.999,112.914c0,0,15.008,25.214,15.008,62.579c0,24.1-1.447,26.854-1.447,26.854"/><path fill="none" stroke="#000" d="M48.677,106.907c0,0,25.617,26.664,25.617,64.027c0,24.099-6.619,27.542-5.922,31.41"/><line x1="109.802" x2="46.516" y1="80.836" y2="113.008" fill="none" stroke="#000" stroke-width="2"/><line x1="126.223" x2="46.516" y1="72.279" y2="113.008" fill="none" stroke="#000"/><line x1="141.976" x2="46.516" y1="64.217" y2="113.008" fill="none" stroke="#000" stroke-width=".5"/><path d="M91.171,93.558c1.035-0.502,1.467-1.746,0.965-2.781l-0.801-1.652c-0.502-1.033-1.746-1.465-2.781-0.963l0,0	c-1.033,0.501-1.466,1.746-0.964,2.779l0.802,1.653C88.892,93.629,90.137,94.06,91.171,93.558L91.171,93.558z"/><circle cx="141.976" cy="64.217" r="1" fill="#676767"/><line x1="30.242" x2="46.516" y1="43.905" y2="113.008" fill="none" stroke="#000" stroke-width="2"/><line x1="25.817" x2="46.516" y1="25.925" y2="113.008" fill="none" stroke="#000"/><line x1="21.713" x2="46.516" y1="8.711" y2="113.008" fill="none" stroke="#000" stroke-width=".5"/><path d="M38.193,65.017c-0.241-1.124-1.35-1.838-2.474-1.596l-1.795,0.387c-1.123,0.243-1.838,1.349-1.594,2.474l0,0	c0.239,1.124,1.349,1.838,2.473,1.594l1.795-0.386C37.721,67.248,38.435,66.141,38.193,65.017L38.193,65.017z"/><circle cx="21.713" cy="8.711" r="1" fill="#676767"/><circle cx="51.527" cy="311.897" r="33" fill="#FC0"/><polygon points="96.527 311.897 89.662 317.901 13.385 317.901 6.527 311.897 6.527 201.905 96.527 201.905"/><line x1="68.518" x2="46.516" y1="45.51" y2="113.008" fill="none" stroke="#000" stroke-width="2"/><line x1="74.078" x2="46.516" y1="27.847" y2="113.008" fill="none" stroke="#000"/><line x1="79.516" x2="46.516" y1="11.008" y2="113.008" fill="none" stroke="#000" stroke-width=".5"/><line x1="57.254" x2="57.254" y1="136.932" y2="201.905" fill="none" stroke="#666" stroke-width="3"/><line x1="40.713" x2="40.713" y1="136.932" y2="201.905" fill="none" stroke="#666" stroke-width="3"/><line x1="48.984" x2="48.984" y1="136.932" y2="201.905" fill="none" stroke="#666" stroke-width="3"/><circle cx="48.999" cy="109.915" r="45"/><circle cx="45.574" cy="114.075" r="13.949" fill="#FFF"/><path d="M43.76,153.498c0-1.15-0.932-2.082-2.082-2.082h-1.837c-1.148,0-2.082,0.932-2.082,2.082l0,0	c0,1.149,0.933,2.081,2.082,2.081h1.837C42.828,155.579,43.76,154.647,43.76,153.498L43.76,153.498z"/><path d="M64.34,67.679c0.376-1.087-0.198-2.271-1.284-2.648l-1.735-0.603c-1.086-0.376-2.271,0.198-2.646,1.285l0,0	c-0.377,1.086,0.198,2.271,1.284,2.647l1.733,0.603C62.778,69.341,63.963,68.765,64.34,67.679L64.34,67.679z"/><path d="M51.97,154.789c0-1.149-0.932-2.082-2.081-2.082h-1.838c-1.148,0-2.082,0.932-2.082,2.082l0,0	c0,1.148,0.933,2.081,2.082,2.081h1.838C51.038,156.87,51.97,155.938,51.97,154.789L51.97,154.789z"/><path d="M60.272,153.498c0-1.15-0.933-2.082-2.082-2.082h-1.837c-1.146,0-2.082,0.932-2.082,2.082l0,0	c0,1.149,0.935,2.081,2.082,2.081h1.837C59.34,155.579,60.272,154.647,60.272,153.498L60.272,153.498z"/><path d="M43.76,202.142c0-1.147-0.932-2.082-2.082-2.082h-1.837c-1.148,0-2.082,0.935-2.082,2.082l0,0	c0,1.149,0.933,2.082,2.082,2.082h1.837C42.828,204.224,43.76,203.292,43.76,202.142L43.76,202.142z"/><path d="M70.543,202.142c0-1.147-0.935-2.082-2.082-2.082h-3.343c-1.149,0-2.082,0.935-2.082,2.082h-0.011	c0,1.149,0.939,2.082,2.093,2.082h3.343C69.611,204.224,70.543,203.292,70.543,202.142L70.543,202.142z"/><path d="M51.97,202.142c0-1.146-0.932-2.082-2.081-2.082h-1.838c-1.148,0-2.082,0.935-2.082,2.082l0,0	c0,1.148,0.933,2.082,2.082,2.082h1.838C51.038,204.224,51.97,203.291,51.97,202.142L51.97,202.142z"/><path d="M60.272,202.142c0-1.147-0.933-2.082-2.082-2.082h-1.837c-1.146,0-2.082,0.935-2.082,2.082l0,0	c0,1.149,0.935,2.082,2.082,2.082h1.837C59.34,204.224,60.272,203.292,60.272,202.142L60.272,202.142z"/><circle cx="79.516" cy="11.008" r="1" fill="#676767"/><path fill="none" stroke="#FFF" stroke-linecap="round" stroke-width="1.1" d="M28.696,114.281c0-9.32,7.56-16.876,16.88-16.876	c9.318,0,16.878,7.556,16.878,16.876"/><path fill="#5D9917" d="M40.317,116.078c0-2.482,2.017-4.5,4.5-4.5c2.485,0,4.5,2.019,4.5,4.5c0,2.485-2.015,4.5-4.5,4.5	C42.332,120.577,40.317,118.563,40.317,116.078z"/><path fill="none" stroke="#989898" stroke-linecap="round" stroke-width="1.1" d="M62.454,113.995c0,9.32-7.56,16.876-16.877,16.876	c-9.32,0-16.879-7.556-16.879-16.876"/><path fill="none" stroke="#989898" stroke-linecap="round" stroke-width=".77" d="M54.21,106.376	c4.352,4.861,3.938,12.331-0.925,16.683c-4.861,4.353-12.33,3.938-16.685-0.923"/><rect width="68.993" height="2.5" x="16.71" y="220.42" fill="#FC0"/><rect width="20.504" height="69.992" x="16.534" y="225.405" fill="#369"/><rect width="25" height="69.992" x="60.703" y="225.405" fill="#369"/><rect width="23.499" height="69.992" x="37.204" y="225.405" fill="#19334C"/><line x1="37.213" x2="60.942" y1="228.438" y2="228.438" fill="none" stroke="#FFF"/><line x1="37.213" x2="60.942" y1="231.573" y2="231.573" fill="none" stroke="#FFF"/><line x1="37.213" x2="60.942" y1="237.84" y2="237.84" fill="none" stroke="#FFF"/><line x1="37.213" x2="60.942" y1="240.974" y2="240.974" fill="none" stroke="#FFF"/><line x1="37.213" x2="60.942" y1="244.106" y2="244.106" fill="none" stroke="#FFF"/><line x1="37.213" x2="60.942" y1="247.241" y2="247.241" fill="none" stroke="#FFF"/><line x1="37.213" x2="60.942" y1="250.375" y2="250.375" fill="none" stroke="#FFF"/><line x1="37.213" x2="60.942" y1="253.509" y2="253.509" fill="none" stroke="#FFF"/><line x1="37.213" x2="60.942" y1="256.644" y2="256.644" fill="none" stroke="#FFF"/><line x1="37.213" x2="60.942" y1="259.776" y2="259.776" fill="none" stroke="#FFF"/><line x1="37.213" x2="60.942" y1="269.179" y2="269.179" fill="none" stroke="#FFF"/><line x1="37.213" x2="60.942" y1="272.312" y2="272.312" fill="none" stroke="#FFF"/><line x1="37.213" x2="60.942" y1="275.444" y2="275.444" fill="none" stroke="#FFF"/><rect width="23.953" height="4.254" x="36.989" y="293.384"/><line x1="60.703" x2="60.703" y1="225.405" y2="298.147" fill="none" stroke="#001A33" stroke-miterlimit="10"/></svg>