<svg xmlns="http://www.w3.org/2000/svg" xmlns:xlink="http://www.w3.org/1999/xlink" id="Capa_1" width="211.597" height="194.503" x="0" y="0" enable-background="new 70.053 -6.208 211.597 194.503" version="1.1" viewBox="70.053 -6.208 211.597 194.503" xml:space="preserve"><g><path d="M215.368,120.893c0.467,3.725,3.258,7.445,6.514,9.306c2.791,0.465,5.578,0.465,7.447-0.929l2.328-0.933 c0.459-3.722,3.717-6.979,4.178-10.703c1.397-7.903,0.938-14.416-5.119-18.608c-2.315-1.858-4.646-1.858-7.434-0.928 c-6.978,4.187-7.914,12.098-8.373,19.536L215.368,120.893z"/><path fill="#FFF" d="M227.928,108.336c0,5.581-3.256,12.092-5.588,12.092c-2.316-0.465-2.316-7.91-1.387-11.633 c0.469-2.322,1.387-4.184,4.188-4.184C225.141,104.611,227.928,104.611,227.928,108.336L227.928,108.336z"/></g><rect width="211.597" height="194.503" x="31.649" y="-6.208" fill="none"/></svg>