<svg xmlns="http://www.w3.org/2000/svg" xmlns:xlink="http://www.w3.org/1999/xlink" id="Capa_1" width="211.597" height="194.503" x="0" y="0" enable-background="new 70.053 -6.208 211.597 194.503" version="1.1" viewBox="70.053 -6.208 211.597 194.503" xml:space="preserve"><g><path fill="#171516" d="M181.413,124.145c4.651,0,8.828-8.834,8.369-19.996c0-11.164-4.183-20.002-9.298-19.538 c-5.116,0-8.84,8.834-8.84,20C172.109,115.311,176.295,124.145,181.413,124.145L181.413,124.145z"/><path fill="#FFF" d="M185.602,91.122c2.781,7.444,3.265,18.144,0.465,25.583c-0.465-4.652-1.858-10.698-6.518-11.162 c-3.254,0.464-4.652,1.863-5.582,3.723c-0.465-8.375-0.465-20.467,5.582-23.261C182.809,85.54,184.208,89.263,185.602,91.122 L185.602,91.122z"/></g><rect width="211.597" height="194.503" x="31.649" y="-6.208" fill="none"/></svg>